<svg xmlns="http://www.w3.org/2000/svg" viewBox="0 0 64 64"><rect width="64" height="64" rx="14" fill="#14120E"/><g transform="translate(3.43,40.24) scale(0.02398,-0.02398)"><path d="M246.71728515625 0.0V540.3056640625H23.9130859375V687.0869140625H648.88916015625V540.3056640625H426.171875V0.0ZM1046.04296875 -12.0Q934.521484375 -12.0 857.30419921875 26.63037109375Q780.0869140625 65.2607421875 740.04345703125 144.30419921875Q700.0 223.34765625 700.0 343.54345703125Q700.0 521.826171875 789.358642578125 610.45654296875Q878.71728515625 699.0869140625 1046.04296875 699.0869140625Q1139.19482421875 699.0869140625 1210.95556640625 667.641357421875Q1282.71630859375 636.19580078125 1323.488037109375 573.619873046875Q1364.259765625 511.0439453125 1364.259765625 417.783203125H1188.8701171875Q1188.8701171875 462.3486328125 1171.446044921875 493.859619140625Q1154.02197265625 525.37060546875 1122.271728515625 542.28369140625Q1090.521484375 559.19677734375 1046.41259765625 559.19677734375Q989.8251953125 559.19677734375 953.792236328125 536.229248046875Q917.75927734375 513.26171875 900.878662109375 469.95703125Q883.998046875 426.65234375 883.998046875 365.9560546875V321.130859375Q883.998046875 259.97802734375 901.150390625 216.67333984375Q918.302734375 173.36865234375 953.835693359375 150.62939453125Q989.36865234375 127.89013671875 1045.32568359375 127.89013671875Q1092.97802734375 127.89013671875 1126.271728515625 144.031494140625Q1159.5654296875 160.1728515625 1177.26123046875 191.412109375Q1194.95703125 222.6513671875 1194.95703125 266.67333984375H1364.259765625Q1364.259765625 174.49951171875 1324.80322265625 112.467041015625Q1285.3466796875 50.4345703125 1213.857666015625 19.21728515625Q1142.36865234375 -12.0 1046.04296875 -12.0ZM1566.6962890625 0.0 1394.28271484375 687.0869140625H1582.28076171875L1665.564453125 325.97509765625Q1668.02099609375 317.06201171875 1671.02099609375 300.10546875Q1674.02099609375 283.14892578125 1677.564453125 263.877197265625Q1681.10791015625 244.60546875 1683.6513671875 229.06201171875H1688.10791015625Q1690.10791015625 239.431640625 1692.1513671875 252.616455078125Q1694.19482421875 265.80126953125 1696.69482421875 279.2578125Q1699.19482421875 292.71435546875 1701.466552734375 305.029541015625Q1703.73828125 317.3447265625 1705.28173828125 325.97509765625L1784.36962890625 687.0869140625H1979.0859375L2060.34765625 325.97509765625Q2062.80419921875 315.97509765625 2066.075927734375 298.746826171875Q2069.34765625 281.5185546875 2072.89111328125 262.790283203125Q2076.4345703125 244.06201171875 2078.97802734375 229.06201171875H2083.4345703125Q2085.4345703125 239.5185546875 2087.9345703125 252.47509765625Q2090.4345703125 265.431640625 2092.662841796875 278.659912109375Q2094.89111328125 291.88818359375 2097.619384765625 304.159912109375Q2100.34765625 316.431640625 2102.34765625 325.97509765625L2183.45751953125 687.0869140625H2358.71630859375L2185.84619140625 0.0H1985.76123046875L1898.1298828125 380.4375Q1895.67333984375 393.89404296875 1891.901611328125 411.8505859375Q1888.1298828125 429.80712890625 1884.814697265625 448.035400390625Q1881.49951171875 466.263671875 1878.9560546875 479.72021484375H1874.9560546875Q1872.869140625 466.3505859375 1869.82568359375 447.9375Q1866.7822265625 429.5244140625 1863.23876953125 411.796142578125Q1859.6953125 394.06787109375 1856.6953125 380.4375L1769.5205078125 0.0Z" fill="#EAFD62"/></g></svg>